<svg xmlns="http://www.w3.org/2000/svg" width="31.25" height="29.691" viewBox="0 0 31.25 29.691">
  <path id="异地办理" d="M37.5,28.125v7.031c0,1.094-1.984,3.906-3.125,3.906H17.969V36.719H32.813c2.331,0,2.344-3.125,2.344-3.125V28.125H32.031L36.363,22.1l4.263,6.027Zm-5.4-3.2H31.056A70.036,70.036,0,0,1,25,33.407a70.038,70.038,0,0,1-6.057-8.482H17.9c-3.137,0-3.053,2.422-3.053,2.422V33.6H17.97l-4.333,5.469L9.375,33.594H12.5V26.563c0-3.609,4.977-4.465,4.977-4.465a17.266,17.266,0,0,1-1-3.712A8.778,8.778,0,0,1,25,9.374a8.777,8.777,0,0,1,8.522,9.012A11.373,11.373,0,0,1,32.1,23ZM25,13.13a4.513,4.513,0,1,0,4.261,4.505A4.388,4.388,0,0,0,25,13.13Z" transform="translate(-9.375 -9.374)" fill="#fff"/>
</svg>
