<svg xmlns="http://www.w3.org/2000/svg" width="37.5" height="28.906" viewBox="0 0 37.5 28.906">
  <path id="提档" d="M35.547,39.844a8.984,8.984,0,1,1,8.984-8.984,8.984,8.984,0,0,1-8.984,8.984Zm0-16.406a7.422,7.422,0,1,0,7.422,7.422A7.422,7.422,0,0,0,35.547,23.438ZM32.031,36.719V29.688H37.5V27.344H32.031V25h7.813v7.031H34.375v2.344h5.469v2.344ZM27.344,23.438h-12.5v.781H26.769a13.412,13.412,0,0,0-.988,1.563H14.844v.781H25.781A15.751,15.751,0,0,0,25,28.125H14.844v.781H25V29.3a13.214,13.214,0,0,0,0,2.734H9.375L7.031,29.048V23.011l1.563-1.917h1.563L12.5,13.281l2.344-2.344H29.688l2.344,2.344,2.344,6.25,1.563.781.781.781c-1.028-.464-2.315,0-3.516,0a10.263,10.263,0,0,0-5.859,2.344ZM11.63,23.011A2.422,2.422,0,1,0,13.9,25.426a2.344,2.344,0,0,0-2.266-2.415Zm18.838-9.73-.781-.781H22.656l.032.714H24.18v1.518H20.452V13.214h1.491l-.068-.714H14.844l-.781.781-.781,7.813H31.25ZM12.5,37.5H9.375V32.813H12.5Z" transform="translate(-7.031 -10.938)" fill="#fff"/>
</svg>
