<svg xmlns="http://www.w3.org/2000/svg" width="32.813" height="30.469" viewBox="0 0 32.813 30.469">
  <path id="路段" d="M42.969,34.375v4.634l-2.344.054v1.563H38.281V39.063H30.469v1.563H28.125V39.063H25.781V34.375l2.344-1.562H25.781V31.25l2.344-.781.781-2.344V25H39.844v3.125l.781,2.344,2.344.781v1.563H40.625ZM29.688,25.781v1.563h3.125V25.781Zm3.906,0v1.563h1.563V25.781Zm5.469,0H35.938v1.563h3.125ZM27.344,35.938V37.5H31.25V35.938Zm11.719-3.906V28.906H29.688v3.125ZM37.5,35.938V37.5h3.906V35.938ZM27.344,28.125H10.156V10.156H36.719V23.438H27.344Zm4.688-10.156,2.344,2.344v-6.25h-6.25l2.344,2.344L25,21.094l-4.687-3.906-7.031,6.25L14.844,25l5.469-4.687L25,24.219Z" transform="translate(-10.156 -10.156)" fill="#fff"/>
</svg>
