<svg xmlns="http://www.w3.org/2000/svg" width="19.185" height="18.371" viewBox="0 0 19.185 18.371">
  <g id="搜索" transform="translate(0 -14.738)">
    <path id="路径_62" data-name="路径 62" d="M6.14,19.739a6.362,6.362,0,0,1,4.221-4.7A6.684,6.684,0,0,1,16.6,16.285a6.3,6.3,0,0,1,2.014,6.045,6.217,6.217,0,0,1-7.484,4.892A6.4,6.4,0,0,1,6.14,19.739Zm7.2-3.549a4.948,4.948,0,1,0,3.837,5.852A4.928,4.928,0,0,0,13.335,16.19Zm5.293,16.92H.54c-.384,0-.54-.193-.54-.45s.157-.45.54-.45H18.627c.384,0,.558.193.558.45S19.011,33.109,18.628,33.109ZM4.257,25.435H.54c-.384,0-.54-.193-.54-.45s.157-.45.54-.45H4.255c.384,0,.54.193.54.45S4.639,25.435,4.257,25.435Zm0-6.715H.558c-.384,0-.558-.193-.558-.45s.176-.45.558-.45h3.7c.384,0,.54.193.54.45S4.639,18.719,4.257,18.719Z" transform="translate(0 0)" fill="#fff"/>
    <path id="路径_63" data-name="路径 63" d="M809.349,596.167l-1.823-2.687c-.191-.384-.191-.864.191-1.055a.751.751,0,0,1,1.055.191l1.823,2.687c.191.384.191.864-.191,1.055A.849.849,0,0,1,809.349,596.167Z" transform="translate(-792.272 -566.74)" fill="#fff"/>
  </g>
</svg>
