<svg xmlns="http://www.w3.org/2000/svg" width="24.687" height="24.687" viewBox="0 0 24.687 24.687">
  <path id="查询" d="M36.406,32.895l-1.949,1.949-1.358-1.3h-.045c.006-.006.019-.012.026-.018l-1.761-1.685a4.785,4.785,0,0,1-1.969.455,5.114,5.114,0,1,1,4.262-2.441Zm-7.055-8.739a3.053,3.053,0,1,0,3.008,3.053,3.053,3.053,0,0,0-3.008-3.053Zm-.822-3.6H15.617v2.6h8.342a7.059,7.059,0,0,0-1.285,2.6H15.617v2.6h6.866a7.062,7.062,0,0,0,3.248,5.2H11.719V10.156H33.158V21.62A6.721,6.721,0,0,0,28.529,20.551Zm-12.912-5.2v2.6h2.6v-2.6Zm14.293,0h-9.1v2.6h9.1Z" transform="translate(-11.719 -10.156)" fill="#fff"/>
</svg>
